
<svg xmlns="http://www.w3.org/2000/svg" version="1.1" xmlns:xlink="http://www.w3.org/1999/xlink" preserveAspectRatio="none" x="0px" y="0px" width="200px" height="200px" viewBox="0 0 200 200">
<defs>
<g id="Layer1_0_FILL">
<path fill="#FFFFFF" stroke="none" d="
M 199 100.55
L 199 100
Q 199 59.15 170.05 30.05 142 2.15 102.95 1.05
L 100 1
Q 59 1 30.05 30.05 1 59.05 1 100
L 1 100.55
Q 1.15 141.2 30.05 170 58.95 199 100 199 141.05 199 170.05 170 198.8 141.2 199 100.55 Z"/>
</g>

<g id="Layer0_0_FILL">
<path fill="#F76B55" stroke="none" d="
M 153.8 45.95
Q 149.85 42 144.3 42.2 138.85 42 134.6 45.95
L 99.75 80.85 65.25 46.25
Q 61.5 42.5 55.75 42.2 50.1 42.35 46.05 46.25 42.2 50.25 42.2 55.75 42.2 61.65 46.05 65.35
L 80.65 100 46.05 134.65
Q 42.2 138.45 42.2 144.35 42.2 149.9 46.05 153.75 50.15 157.7 55.75 157.9 61.5 157.7 65.25 153.75
L 99.75 119.2 134.6 154.15
Q 138.9 158 144.3 157.9 149.85 158.2 153.8 154.15 157.85 150.1 157.85 144.35 157.85 138.95 153.8 134.95
L 118.9 100 153.8 65.1
Q 157.85 61.3 157.85 55.75 157.85 50 153.8 45.95 Z"/>
</g>
</defs>

<g transform="matrix( 1, 0, 0, 1, 0,0) ">
<use xlink:href="#Layer1_0_FILL"/>
</g>

<g transform="matrix( 1, 0, 0, 1, 0,0) ">
<use xlink:href="#Layer0_0_FILL"/>
</g>
</svg>
