
<svg xmlns="http://www.w3.org/2000/svg" version="1.1" xmlns:xlink="http://www.w3.org/1999/xlink" preserveAspectRatio="none" x="0px" y="0px" width="50px" height="50px" viewBox="0 0 50 50">
<defs>
<g id="Layer0_0_FILL">
<path fill="#FFFFFF" stroke="none" d="
M 41.95 41.95
Q 45.3 38.65 47.1 34.35 49 29.85 49 25 49 20.1 47.1 15.65 45.3 11.35 41.95 8.05 38.65 4.7 34.35 2.9 29.85 1 25 1 20.1 1 15.65 2.9 11.35 4.7 8.05 8.05 4.7 11.35 2.9 15.65 1 20.1 1 25 1 29.85 2.9 34.35 4.7 38.65 8.05 41.95 11.35 45.3 15.65 47.1 20.1 49 25 49 29.85 49 34.35 47.1 38.65 45.3 41.95 41.95
M 42.95 17.4
Q 44.5 21.05 44.5 25 44.5 28.95 42.95 32.6 41.45 36.1 38.75 38.8 36.1 41.45 32.6 42.95 28.95 44.5 25 44.5 21 44.5 17.4 42.95 13.9 41.45 11.2 38.8 8.5 36.1 7.05 32.6 5.5 28.95 5.5 25 5.5 21.05 7.05 17.4 8.5 13.9 11.2 11.2 13.9 8.5 17.4 7.05 21.05 5.5 25 5.5 28.95 5.5 32.6 7.05 36.1 8.5 38.75 11.2 41.45 13.9 42.95 17.4
M 25 21.8
L 20.55 17.4
Q 19.9 16.75 19 16.75 18.05 16.75 17.4 17.4 16.75 18.05 16.75 19 16.75 19.95 17.4 20.6
L 21.8 25 17.4 29.4
Q 16.75 30.05 16.75 31 16.75 31.9 17.4 32.55 18.05 33.2 19 33.2 19.95 33.25 20.55 32.55
L 25 28.15 29.4 32.55
Q 30.05 33.25 31 33.25 31.9 33.25 32.55 32.55 33.2 31.9 33.2 30.95 33.2 30.05 32.55 29.4
L 28.15 25 32.55 20.6
Q 33.2 19.9 33.2 19 33.2 18.05 32.55 17.4 31.9 16.75 30.95 16.75 30.05 16.75 29.4 17.4
L 25 21.8 Z"/>
</g>
</defs>

<g transform="matrix( 1, 0, 0, 1, 0,0) ">
<use xlink:href="#Layer0_0_FILL"/>
</g>
</svg>
