
<svg xmlns="http://www.w3.org/2000/svg" version="1.1" xmlns:xlink="http://www.w3.org/1999/xlink" preserveAspectRatio="none" x="0px" y="0px" width="50px" height="50px" viewBox="0 0 50 50">
<defs>
<g id="Layer4_0_FILL">
<path fill="#BABABA" stroke="none" d="
M 41.45 30.75
Q 43 27.05 43 23 43 18.9 41.45 15.2 39.9 11.6 37.1 8.85 34.35 6.05 30.75 4.55 27 3 23 3 18.9 3 15.2 4.55 11.6 6.05 8.85 8.85 6.05 11.6 4.55 15.2 3 18.9 3 23 3 27.05 4.55 30.75 6.05 34.4 8.85 37.1 11.6 39.9 15.2 41.45 18.9 43 23 43 27 43 30.75 41.45 34.35 39.9 37.1 37.1 39.9 34.4 41.45 30.75
M 23 6.75
Q 26.3 6.75 29.3 8 32.2 9.25 34.5 11.5 36.75 13.75 37.95 16.65 39.25 19.7 39.25 23 39.25 26.3 37.95 29.3 36.75 32.2 34.5 34.5 32.2 36.75 29.3 37.95 26.3 39.25 23 39.25 19.7 39.25 16.65 37.95 13.75 36.75 11.5 34.5 9.25 32.2 8 29.3 6.75 26.3 6.75 23 6.75 19.7 8 16.65 9.25 13.75 11.5 11.5 13.75 9.25 16.65 8 19.7 6.75 23 6.75 Z"/>
</g>

<g id="Symbol_1_0_Layer0_0_FILL">
<path fill="#00FF00" stroke="none" d="
M 54.5 40.75
Q 51.6 37.85 47.45 37.85 43.3 37.85 40.35 40.75 37.45 43.7 37.45 47.85 37.45 52 40.35 54.9 43.3 57.85 47.45 57.85 51.6 57.85 54.5 54.9 57.45 52 57.45 47.85 57.45 43.7 54.5 40.75 Z"/>
</g>

<g id="Symbol_1_0_Layer0_1_FILL">
<path fill="#FFFFFF" stroke="none" d="
M 76.15 28.05
Q 75.7 27.6 75.1 27.6
L 63.1 27.6
Q 62.5 27.6 62.05 28.05 61.6 28.5 61.6 29.1 61.6 29.7 62.05 30.15 62.5 30.6 63.1 30.6
L 75.1 30.6
Q 75.7 30.6 76.15 30.15 76.6 29.7 76.6 29.1 76.6 28.5 76.15 28.05 Z"/>
</g>

<g id="Symbol_1_0_Layer0_2_FILL">
<path fill="#FFFFFF" stroke="none" d="
M 68.6 29.6
Q 69 29.6 69.3 29.3 69.6 29 69.6 28.6 69.6 28.2 69.3 27.9 69 27.6 68.6 27.6
L 62.6 27.6
Q 62.2 27.6 61.9 27.9 61.6 28.2 61.6 28.6 61.6 29 61.9 29.3 62.2 29.6 62.6 29.6
L 68.6 29.6 Z"/>
</g>

<g id="Layer0_0_FILL">
<path fill="#BABABA" stroke="none" d="
M 16.6 29.35
Q 19.25 32 23 32 26.7 32 29.35 29.35 32 26.75 32 23 32 19.25 29.35 16.65 26.7 14 23 14 19.25 14 16.6 16.65 14 19.25 14 23 14 26.75 16.6 29.35 Z"/>
</g>
</defs>

<g transform="matrix( 1, 0, 0, 1, 0,0) ">
<use xlink:href="#Layer4_0_FILL"/>
</g>

<g transform="matrix( 1, 0, 0, 1, 29,29) ">
<g transform="matrix( 1, 0, 0, 1, -37.45,-37.85) ">
<use xlink:href="#Symbol_1_0_Layer0_0_FILL"/>
</g>

<g transform="matrix( 1, 0, 0, 1, -58.6,-18.6) ">
<use xlink:href="#Symbol_1_0_Layer0_1_FILL"/>
</g>

<g transform="matrix( 0, 1.87493896484375, -1.4999847412109375, 0, 53.4,-112.5) ">
<use xlink:href="#Symbol_1_0_Layer0_2_FILL"/>
</g>
</g>

<g transform="matrix( 1, 0, 0, 1, 0,0) ">
<use xlink:href="#Layer0_0_FILL"/>
</g>
</svg>
