
<svg xmlns="http://www.w3.org/2000/svg" version="1.1" xmlns:xlink="http://www.w3.org/1999/xlink" preserveAspectRatio="none" x="0px" y="0px" width="50px" height="50px" viewBox="0 0 50 50">
<defs>
<g id="Symbol_1_0_Layer0_0_FILL">
<path fill="#00FF00" stroke="none" d="
M 54.5 40.75
Q 51.6 37.85 47.45 37.85 43.3 37.85 40.35 40.75 37.45 43.7 37.45 47.85 37.45 52 40.35 54.9 43.3 57.85 47.45 57.85 51.6 57.85 54.5 54.9 57.45 52 57.45 47.85 57.45 43.7 54.5 40.75 Z"/>
</g>

<g id="Symbol_1_0_Layer0_1_FILL">
<path fill="#FFFFFF" stroke="none" d="
M 76.15 28.05
Q 75.7 27.6 75.1 27.6
L 63.1 27.6
Q 62.5 27.6 62.05 28.05 61.6 28.5 61.6 29.1 61.6 29.7 62.05 30.15 62.5 30.6 63.1 30.6
L 75.1 30.6
Q 75.7 30.6 76.15 30.15 76.6 29.7 76.6 29.1 76.6 28.5 76.15 28.05 Z"/>
</g>

<g id="Symbol_1_0_Layer0_2_FILL">
<path fill="#FFFFFF" stroke="none" d="
M 68.6 29.6
Q 69 29.6 69.3 29.3 69.6 29 69.6 28.6 69.6 28.2 69.3 27.9 69 27.6 68.6 27.6
L 62.6 27.6
Q 62.2 27.6 61.9 27.9 61.6 28.2 61.6 28.6 61.6 29 61.9 29.3 62.2 29.6 62.6 29.6
L 68.6 29.6 Z"/>
</g>

<g id="Layer0_0_FILL">
<path fill="#BABABA" stroke="none" d="
M 34.35 17.5
L 34.35 11.15 13.6 11.15 13.6 17.5 16.05 17.5 16.65 13.65 17.2 13.2 21.55 13.2 21.55 32.8 20.95 33.35 18.55 33.55 18.55 35.3 29.35 35.3 29.35 33.55 27 33.35 26.4 32.8 26.4 13.2 30.7 13.2 31.25 13.65 31.85 17.5 34.35 17.5 Z"/>
</g>

<path id="Layer1_0_1_STROKES" stroke="#BABABA" stroke-width="4" stroke-linejoin="round" stroke-linecap="round" fill="none" d="
M 15.8 5.6
L 32.8 5.6
Q 42.8 5.6 42.8 15.6
L 42.8 32.6
Q 42.8 42.6 32.8 42.6
L 15.8 42.6
Q 5.8 42.6 5.8 32.6
L 5.8 15.6
Q 5.8 5.6 15.8 5.6 Z"/>
</defs>

<g transform="matrix( 1, 0, 0, 1, -0.8,-1.6) ">
<use xlink:href="#Layer1_0_1_STROKES"/>
</g>

<g transform="matrix( 1, 0, 0, 1, 29,29) ">
<g transform="matrix( 1, 0, 0, 1, -37.45,-37.85) ">
<use xlink:href="#Symbol_1_0_Layer0_0_FILL"/>
</g>

<g transform="matrix( 1, 0, 0, 1, -58.6,-18.6) ">
<use xlink:href="#Symbol_1_0_Layer0_1_FILL"/>
</g>

<g transform="matrix( 0, 1.87493896484375, -1.4999847412109375, 0, 53.4,-112.5) ">
<use xlink:href="#Symbol_1_0_Layer0_2_FILL"/>
</g>
</g>

<g transform="matrix( 1, 0, 0, 1, 0,0) ">
<use xlink:href="#Layer0_0_FILL"/>
</g>
</svg>
