
<svg xmlns="http://www.w3.org/2000/svg" version="1.1" xmlns:xlink="http://www.w3.org/1999/xlink" preserveAspectRatio="none" x="0px" y="0px" width="50px" height="50px" viewBox="0 0 50 50">
<defs>
<g id="Layer1_0_FILL">
<path fill="#BABABA" stroke="none" d="
M 46 7.5
Q 46 5.25 44.4 3.6 42.75 2 40.5 2
L 7.5 2
Q 5.25 2 3.6 3.6 2 5.25 2 7.5
L 2 35
Q 2 37.3 3.6 38.9 5.25 40.5 7.5 40.5
L 40.5 40.5
Q 42.75 40.5 44.4 38.9 46 37.25 46 35
L 46 7.5
M 41.45 6.55
Q 41.9 6.95 41.9 7.5
L 41.9 35 29.75 19.3
Q 29.45 18.9 29.05 18.7 28.6 18.5 28.15 18.5 27.65 18.5 27.2 18.7 26.8 18.9 26.5 19.3
L 19.35 28.55 16.75 24.85
Q 16.45 24.45 16 24.25 15.55 24 15.05 24 14.55 24 14.1 24.25 13.7 24.45 13.4 24.85
L 6.15 35.05 6.15 7.5
Q 6.15 6.95 6.55 6.55 6.95 6.15 7.5 6.15
L 40.5 6.15
Q 41.05 6.15 41.45 6.55
M 17.3 11.45
Q 16.1 10.25 14.4 10.25 12.65 10.25 11.45 11.45 10.25 12.65 10.25 14.4 10.25 16.1 11.45 17.3 12.65 18.5 14.4 18.5 16.1 18.5 17.3 17.3 18.5 16.1 18.5 14.4 18.5 12.65 17.3 11.45 Z"/>
</g>

<g id="Symbol_1_0_Layer0_0_FILL">
<path fill="#00FF00" stroke="none" d="
M 54.5 40.75
Q 51.6 37.85 47.45 37.85 43.3 37.85 40.35 40.75 37.45 43.7 37.45 47.85 37.45 52 40.35 54.9 43.3 57.85 47.45 57.85 51.6 57.85 54.5 54.9 57.45 52 57.45 47.85 57.45 43.7 54.5 40.75 Z"/>
</g>

<g id="Symbol_1_0_Layer0_1_FILL">
<path fill="#FFFFFF" stroke="none" d="
M 76.15 28.05
Q 75.7 27.6 75.1 27.6
L 63.1 27.6
Q 62.5 27.6 62.05 28.05 61.6 28.5 61.6 29.1 61.6 29.7 62.05 30.15 62.5 30.6 63.1 30.6
L 75.1 30.6
Q 75.7 30.6 76.15 30.15 76.6 29.7 76.6 29.1 76.6 28.5 76.15 28.05 Z"/>
</g>

<g id="Symbol_1_0_Layer0_2_FILL">
<path fill="#FFFFFF" stroke="none" d="
M 68.6 29.6
Q 69 29.6 69.3 29.3 69.6 29 69.6 28.6 69.6 28.2 69.3 27.9 69 27.6 68.6 27.6
L 62.6 27.6
Q 62.2 27.6 61.9 27.9 61.6 28.2 61.6 28.6 61.6 29 61.9 29.3 62.2 29.6 62.6 29.6
L 68.6 29.6 Z"/>
</g>
</defs>

<g transform="matrix( 0.9317779541015625, 0, 0, 0.932342529296875, 1.15,1.15) ">
<use xlink:href="#Layer1_0_FILL"/>
</g>

<g transform="matrix( 1, 0, 0, 1, 29,29) ">
<g transform="matrix( 1, 0, 0, 1, -37.45,-37.85) ">
<use xlink:href="#Symbol_1_0_Layer0_0_FILL"/>
</g>

<g transform="matrix( 1, 0, 0, 1, -58.6,-18.6) ">
<use xlink:href="#Symbol_1_0_Layer0_1_FILL"/>
</g>

<g transform="matrix( 0, 1.87493896484375, -1.4999847412109375, 0, 53.4,-112.5) ">
<use xlink:href="#Symbol_1_0_Layer0_2_FILL"/>
</g>
</g>
</svg>
