
<svg xmlns="http://www.w3.org/2000/svg" version="1.1" xmlns:xlink="http://www.w3.org/1999/xlink" preserveAspectRatio="none" x="0px" y="0px" width="50px" height="50px" viewBox="0 0 50 50">
<defs>
<g id="Symbol_1_0_Layer0_0_FILL">
<path fill="#BABABA" stroke="none" d="
M 479.8 313.95
L 479.8 336.7
Q 479.75 342.55 483 345.9 485.95 348.95 490.6 349.15
L 515 349.15 515 379.15 529.8 379.15 529.8 346.7
Q 529.4 342.75 529.2 341.7 528.6 338.7 527.2 337.15 514.95 323.5 513.5 321.9 504.65 312.5 495.2 304.35 492.4 301.95 489.4 300.45 486.8 299.15 485.1 299
L 430.5 299
Q 419.55 299.5 414.65 306.55 410 313.2 410.2 326.65
L 410.2 435.6
Q 409.525 457.8322265625 434.3 458.95
L 503.45 458.95
Q 516.55 459.2 522.85 453.55 529.15 447.95 529.35 436.05
L 529.35 414.15 514.85 414.15 514.85 438.1
Q 515.1177734375 445.3169921875 507.25 444.2
L 430.9 444.2
Q 424.261328125 444.802734375 424.95 433.45
L 424.95 322.2
Q 424.0037109375 313.861328125 430.05 313.95
L 479.8 313.95 Z"/>
</g>

<g id="Symbol_1_0_Layer0_1_FILL">
<path fill="#BABABA" stroke="none" d="
M 471.15 391.1
Q 469.15 393.1 469.15 395.95 469.15 398.8 471.15 400.8 473.15 402.8 476 402.8
L 582.3 402.8
Q 585.15 402.8 587.15 400.8 589.15 398.8 589.15 395.95 589.15 393.1 587.15 391.1 585.15 389.1 582.3 389.1
L 476 389.1
Q 473.15 389.1 471.15 391.1 Z"/>
</g>

<g id="Symbol_1_0_Layer0_2_FILL">
<path fill="#BABABA" stroke="none" d="
M 471.15 391.1
Q 469.15 393.1 469.15 395.95 469.15 398.8 471.15 400.8 473.15 402.8 476 402.8
L 512.3 402.8
Q 515.15 402.8 517.15 400.8 519.15 398.8 519.15 395.95 519.15 393.1 517.15 391.1 515.15 389.1 512.3 389.1
L 476 389.1
Q 473.15 389.1 471.15 391.1 Z"/>
</g>

<g id="Symbol_1_0_Layer0_3_FILL">
<path fill="#BABABA" stroke="none" d="
M 471.15 391.1
Q 469.15 393.1 469.15 395.95 469.15 398.8 471.15 400.8 473.15 402.8 476 402.8
L 512.3 402.8
Q 515.15 402.8 517.15 400.8 519.15 398.8 519.15 395.95 519.15 393.1 517.15 391.1 515.15 389.1 512.3 389.1
L 476 389.1
Q 473.15 389.1 471.15 391.1 Z"/>
</g>
</defs>

<g transform="matrix( 0.244232177734375, 0, 0, 0.243804931640625, 3,4.8) ">
<g transform="matrix( 1, 0, 0, 1, -410.2,-299) ">
<use xlink:href="#Symbol_1_0_Layer0_0_FILL"/>
</g>

<g transform="matrix( 1, 0, 0, 1.0222625732421875, -409,-307.35) ">
<use xlink:href="#Symbol_1_0_Layer0_1_FILL"/>
</g>

<g transform="matrix( 0.70709228515625, -0.70709228515625, 0.7228240966796875, 0.72283935546875, -475.75,173.95) ">
<use xlink:href="#Symbol_1_0_Layer0_2_FILL"/>
</g>

<g transform="matrix( 0.70709228515625, 0.70709228515625, -0.72283935546875, 0.7228240966796875, 96.3,-551.9) ">
<use xlink:href="#Symbol_1_0_Layer0_3_FILL"/>
</g>
</g>
</svg>
