
<svg xmlns="http://www.w3.org/2000/svg" version="1.1" xmlns:xlink="http://www.w3.org/1999/xlink" preserveAspectRatio="none" x="0px" y="0px" width="50px" height="50px" viewBox="0 0 50 50">
<defs>
<g id="Layer0_0_FILL">
<path fill="#BABABA" stroke="none" d="
M 15 13
L 11 13 11 37 15 37 15 43 17 43 17 37 21 37 21 13 17 13 17 7 15 7 15 13
M 39 17
L 35 17 35 7 33 7 33 17 29 17 29 33 33 33 33 43 35 43 35 33 39 33 39 17 Z"/>
</g>
</defs>

<g transform="matrix( 1, 0, 0, 1, 0,0) ">
<use xlink:href="#Layer0_0_FILL"/>
</g>
</svg>
