
<svg xmlns="http://www.w3.org/2000/svg" version="1.1" xmlns:xlink="http://www.w3.org/1999/xlink" preserveAspectRatio="none" x="0px" y="0px" width="40px" height="40px" viewBox="0 0 40 40">
<defs>
<g id="Layer5_0_MEMBER_0_MEMBER_0_MEMBER_0_FILL">
<path fill="#BABABA" stroke="none" d="
M 43.95 44
L 43.95 42 5.95 42 5.95 44 43.95 44 Z"/>
</g>

<g id="Layer4_0_FILL">
<path fill="#BABABA" stroke="none" d="
M 38 4
L 38 2 2 2 2 4 38 4 Z"/>
</g>

<g id="Layer3_0_FILL">
<path fill="#BABABA" stroke="none" d="
M 2 38
L 4 38 4 2 2 2 2 38 Z"/>
</g>

<g id="Layer2_0_FILL">
<path fill="#BABABA" stroke="none" d="
M 36 38
L 38 38 38 2 36 2 36 38 Z"/>
</g>

<g id="Layer1_0_FILL">
<path fill="#BABABA" stroke="none" d="
M 73.4 297.3
Q 64.05 306.7 64.05 319.95 64.05 333.25 73.4 342.6 82.75 351.95 96.05 351.95
L 114.7 351.95 9.3 457.3
Q -0.05 466.7 -0.05 479.95 -0.05 493.25 9.3 502.6 18.7 511.9 31.95 511.9 45.25 511.9 54.6 502.6
L 160.05 397.15 160.05 415.85
Q 160.05 429.15 169.4 438.5 178.75 447.85 192.05 447.85 205.3 447.85 214.65 438.5 224.05 429.15 224.05 415.85
L 224.05 319.85
Q 224.05 313.35 221.65 307.65 219.15 301.9 214.75 297.35
L 214.65 297.25
Q 210.15 292.9 204.55 290.5 198.6 287.95 192.15 287.95
L 96.05 287.95
Q 82.8 287.95 73.4 297.3
M 447.8 287.85
Q 441.3 287.95 435.45 290.4 429.7 292.85 425.3 297.25 421 301.7 418.4 307.65 416.05 313.6 416.05 319.85
L 416.05 415.95
Q 416.05 429.25 425.4 438.6 434.75 447.95 448.05 447.95 461.35 447.95 470.7 438.6 480.05 429.25 480.05 415.95
L 480.05 397.25 585.3 502.65
Q 594.7 512 607.95 512 621.25 512 630.6 502.65 640 493.3 640 480 640 466.75 630.6 457.35
L 525.3 351.95 525.25 351.85 543.95 351.85
Q 557.25 351.85 566.6 342.5 575.95 333.15 575.95 319.85 575.95 306.6 566.6 297.2 557.25 287.85 543.95 287.85
L 447.8 287.85
M 640.15 32
Q 640.15 18.75 630.75 9.35 621.4 0 608.1 0 594.85 0 585.45 9.35
L 480.05 114.65 480.05 95.95
Q 480.05 82.7 470.7 73.35 461.3 63.95 448.05 63.95 434.75 63.95 425.4 73.35 416.05 82.7 416.05 95.95
L 416.05 192.05
Q 416.05 198.8 418.4 204.25 421 210.15 425.3 214.55
L 425.4 214.65
Q 429.9 219.05 435.6 221.45 441.6 223.95 448.05 223.95
L 544.05 223.95
Q 557.35 223.95 566.7 214.6 576.05 205.25 576.05 191.95 576.05 178.7 566.7 169.35 557.3 159.95 544.05 159.95
L 525.3 159.95 630.75 54.65
Q 640.15 45.3 640.15 32
M 192.05 63.95
Q 178.8 63.95 169.4 73.35 160.05 82.7 160.05 95.95
L 160.05 114.65 54.6 9.35
Q 45.25 0 32 0 18.8 0 9.4 9.35 0.1 18.75 0.1 31.95 0.1 45.2 9.4 54.55
L 114.85 159.85 96.15 159.85
Q 82.9 159.85 73.5 169.2 64.15 178.6 64.15 191.85 64.15 205.15 73.5 214.5 82.9 223.85 96.15 223.85
L 192.15 223.85
Q 198.8 223.85 204.35 221.45 210.05 219.05 214.65 214.6
L 214.75 214.45
Q 218.95 210.4 221.65 204.15 224.05 198.25 224.05 191.95
L 224.05 95.95
Q 224.05 82.7 214.65 73.35 205.3 63.95 192.05 63.95
M 384.05 255.95
Q 384.05 229.5 365.3 210.7 346.55 191.95 320.05 191.95 293.55 191.95 274.8 210.7 256.05 229.45 256.05 255.95 256.05 282.45 274.8 301.2 293.55 319.95 320.05 319.95 346.55 319.95 365.3 301.2 384.05 282.45 384.05 255.95 Z"/>
</g>
</defs>

<g transform="matrix( 0.94732666015625, 0, 0, 1, -3.65,-6) ">
<use xlink:href="#Layer5_0_MEMBER_0_MEMBER_0_MEMBER_0_FILL"/>
</g>

<g transform="matrix( 1, 0, 0, 1, 0,0) ">
<use xlink:href="#Layer4_0_FILL"/>
</g>

<g transform="matrix( 1, 0, 0, 1, 0,0) ">
<use xlink:href="#Layer3_0_FILL"/>
</g>

<g transform="matrix( 1, 0, 0, 1, 0,0) ">
<use xlink:href="#Layer2_0_FILL"/>
</g>

<g transform="matrix( 0.0374603271484375, 0, 0, 0.0374603271484375, 8,10.4) ">
<use xlink:href="#Layer1_0_FILL"/>
</g>
</svg>
