
<svg xmlns="http://www.w3.org/2000/svg" version="1.1" xmlns:xlink="http://www.w3.org/1999/xlink" preserveAspectRatio="none" x="0px" y="0px" width="50px" height="50px" viewBox="0 0 50 50">
<defs>
<g id="Layer4_0_FILL">
<path fill="#BABABA" stroke="none" d="
M 47 6.15
L 47 4.15 3 4.15 3 6.15 47 6.15 Z"/>
</g>

<g id="Layer3_0_FILL">
<path fill="#BABABA" stroke="none" d="
M 47 48.15
L 47 46.15 3 46.15 3 48.15 47 48.15 Z"/>
</g>

<g id="Layer2_0_FILL">
<path fill="#BABABA" stroke="none" d="
M 5 4.15
L 3 4.15 3 48.15 5 48.15 5 4.15 Z"/>
</g>

<g id="Layer1_0_FILL">
<path fill="#BABABA" stroke="none" d="
M 47 4.15
L 45 4.15 45 48.15 47 48.15 47 4.15 Z"/>
</g>

<g id="Layer0_0_FILL">
<path fill="#BABABA" stroke="none" d="
M 21.5 21.5
L 21.5 29.5 29.5 29.5 29.5 21.5 21.5 21.5 Z"/>
</g>
</defs>

<g transform="matrix( 0.86358642578125, 0, 0, 1, 3.4,1.85) ">
<use xlink:href="#Layer4_0_FILL"/>
</g>

<g transform="matrix( 0.86358642578125, 0, 0, 1, 3.4,-4.15) ">
<use xlink:href="#Layer3_0_FILL"/>
</g>

<g transform="matrix( 1, 0, 0, 0.8408355712890625, 3,2.5) ">
<use xlink:href="#Layer2_0_FILL"/>
</g>

<g transform="matrix( 1, 0, 0, 0.8408355712890625, -3,2.5) ">
<use xlink:href="#Layer1_0_FILL"/>
</g>

<g transform="matrix( 1, 0, 0, 1, 0,0) ">
<use xlink:href="#Layer0_0_FILL"/>
</g>
</svg>
