
<svg xmlns="http://www.w3.org/2000/svg" version="1.1" xmlns:xlink="http://www.w3.org/1999/xlink" preserveAspectRatio="none" x="0px" y="0px" width="100px" height="100px" viewBox="0 0 100 100">
<defs>
<g id="Layer1_0_FILL">
<path fill="#FFFFFF" stroke="none" d="
M 84.25 32.4
Q 84.25 29.2 82.05 26.95 79.75 24.65 76.55 24.65 73.4 24.65 71.1 26.95
L 41.2 56.7 29.1 44.6
Q 26.75 42.3 23.6 42.3 20.4 42.3 18.15 44.6 15.85 46.85 15.85 50 15.85 53.2 18.15 55.5
L 35.85 73.15
Q 38.05 75.45 41.2 75.45 44.45 75.45 46.8 73.15
L 82.05 37.9
Q 84.25 35.55 84.25 32.4 Z"/>
</g>

<g id="Layer0_0_FILL">
<path fill="#000000" stroke="none" d="
M 85.95 32.4
Q 85.95 28.5 83.3 25.75
L 83.25 25.75
Q 80.45 22.95 76.55 22.95 72.7 22.95 69.9 25.75
L 41.2 54.3 30.3 43.4
Q 27.45 40.6 23.6 40.6 19.7 40.6 16.95 43.4 14.15 46.15 14.15 50 14.15 53.9 16.95 56.7
L 34.6 74.35
Q 37.3 77.2 41.2 77.2 45.1 77.2 48 74.45
L 48 74.35 83.25 39.1 83.3 39.1
Q 85.95 36.25 85.95 32.4
M 72.3 28.15
Q 74.1 26.35 76.55 26.35 79.05 26.35 80.85 28.15 82.5 29.85 82.5 32.4 82.5 34.816015625 80.85 36.7
L 45.55 71.95
Q 43.75 73.75 41.2 73.75 38.8 73.75 37.1 71.95
L 37.05 71.95 19.35 54.3
Q 17.6 52.5 17.6 50 17.6 47.6 19.35 45.85
L 19.4 45.8
Q 21.15 44.05 23.6 44.05 26.1 44.05 27.9 45.85
L 27.9 45.8 40 57.9
Q 40.55 58.45 41.2 58.45 41.9 58.45 42.4 57.95
L 72.3 28.2 72.3 28.15 Z"/>
</g>
</defs>

<g transform="matrix( 1, 0, 0, 1, 0,0) ">
<use xlink:href="#Layer1_0_FILL"/>
</g>

<g transform="matrix( 1, 0, 0, 1, 0,0) ">
<use xlink:href="#Layer0_0_FILL"/>
</g>
</svg>
