
<svg xmlns="http://www.w3.org/2000/svg" version="1.1" xmlns:xlink="http://www.w3.org/1999/xlink" preserveAspectRatio="none" x="0px" y="0px" width="211px" height="211px" viewBox="0 0 211 211">
<defs>
<g id="Layer0_0_FILL">
<path fill="#FFFFFF" stroke="none" d="
M 201.75 64.85
Q 193.8 46.1 179.3 31.6 164.85 17.15 146.1 9.2 126.7 1 105.5 1 84.25 1 64.85 9.2 46.1 17.15 31.6 31.6 17.15 46.1 9.2 64.85 1 84.25 1 105.5 1 126.7 9.2 146.1 17.15 164.85 31.6 179.3 46.1 193.8 64.85 201.75 84.25 210 105.5 210 126.7 210 146.1 201.75 164.85 193.8 179.3 179.3 193.8 164.85 201.75 146.1 210 126.7 210 105.5 210 84.25 201.75 64.85
M 162.9 48.05
Q 174.2 59.3 180.35 73.85 186.75 89 186.75 105.5 186.75 122 180.35 137.05 174.2 151.7 162.9 162.9 151.7 174.2 137.05 180.35 122 186.75 105.5 186.75 89 186.75 73.85 180.35 59.3 174.2 48.05 162.9 36.75 151.7 30.6 137.05 24.2 122 24.2 105.5 24.2 89 30.6 73.85 36.75 59.3 48.05 48.05 59.3 36.75 73.85 30.6 89 24.2 105.5 24.2 122 24.2 137.05 30.6 151.7 36.75 162.9 48.05
M 92.45 60.55
Q 89.75 59 86.65 59 83.55 59 80.85 60.55 78.15 62.1 76.6 64.8 75 67.5 75 70.65
L 75 140.4
Q 75 143.55 76.6 146.25 78.1 148.9 80.85 150.5 83.5 152 86.65 152 89.8 152 92.45 150.5
L 153.1 115.6
Q 155.85 114 157.45 111.3 159 108.6 159 105.5 159 102.4 157.45 99.7 155.85 97 153.1 95.4
L 92.45 60.55 Z"/>
</g>
</defs>

<g transform="matrix( 1, 0, 0, 1, 0,0) ">
<use xlink:href="#Layer0_0_FILL"/>
</g>
</svg>
